<svg width="25" height="25" viewBox="0 0 25 25" fill="none" xmlns="http://www.w3.org/2000/svg">
<path d="M14.5707 19.951C16.1301 18.3917 16.6509 16.0896 16.1259 14.101L20.5624 9.45208L23.6061 9.17396L23.5884 9.15521C23.6376 9.1642 23.6883 9.16122 23.7362 9.14654C23.784 9.13186 23.8277 9.10589 23.8634 9.07083C23.8935 9.04108 23.9174 9.00567 23.9337 8.96665C23.9501 8.92762 23.9585 8.88575 23.9586 8.84344C23.9587 8.80113 23.9505 8.75922 23.9343 8.72013C23.9181 8.68103 23.8944 8.64551 23.8644 8.61562L16.3853 1.13541C16.3246 1.07512 16.2425 1.04137 16.1569 1.04157C16.0714 1.04176 15.9894 1.07589 15.929 1.13646C15.8942 1.17254 15.8683 1.21636 15.8537 1.26434C15.839 1.31232 15.8359 1.36309 15.8447 1.4125L15.8269 1.39375L15.5488 4.43854L10.8988 8.875C8.91028 8.34896 6.6082 8.87083 5.04882 10.4292L9.01653 14.3969L3.46236 19.951C2.66861 20.7448 0.740488 23.0292 1.08216 23.9187C1.9707 24.2604 4.25611 22.3312 5.04882 21.5375L10.603 15.9833L14.5707 19.951Z" fill="#587052"/>
</svg>
