<svg width="25" height="25" viewBox="0 0 25 25" fill="none" xmlns="http://www.w3.org/2000/svg">
<path d="M14.5709 19.951C16.1303 18.3916 16.6511 16.0895 16.1261 14.101L20.5626 9.45202L23.6064 9.17389L23.5886 9.15514C23.6379 9.16413 23.6886 9.16116 23.7364 9.14648C23.7843 9.1318 23.8279 9.10583 23.8636 9.07077C23.8937 9.04102 23.9176 9.00561 23.934 8.96659C23.9503 8.92756 23.9588 8.88569 23.9589 8.84338C23.959 8.80107 23.9507 8.75916 23.9345 8.72006C23.9184 8.68097 23.8946 8.64545 23.8647 8.61556L16.3855 1.13535C16.3248 1.07506 16.2427 1.04131 16.1572 1.0415C16.0716 1.0417 15.9897 1.07583 15.9293 1.13639C15.8944 1.17248 15.8686 1.2163 15.8539 1.26428C15.8393 1.31226 15.8362 1.36303 15.8449 1.41244L15.8272 1.39369L15.5491 4.43848L10.8991 8.87494C8.91052 8.3489 6.60844 8.87077 5.04907 10.4291L9.01677 14.3968L3.46261 19.951C2.66886 20.7447 0.740733 23.0291 1.0824 23.9187C1.97094 24.2604 4.25636 22.3312 5.04907 21.5374L10.6032 15.9833L14.5709 19.951Z" fill="#587052"/>
</svg>
