<svg width="24" height="24" viewBox="0 0 24 24" fill="none" xmlns="http://www.w3.org/2000/svg">
<g id="arrow-back">
<path id="Vector" d="M17.28 24C16.71 24 16.14 23.78 15.7 23.34L4.5 12L15.7 0.660006C15.9057 0.45108 16.1508 0.285158 16.4212 0.171903C16.6916 0.0586467 16.9818 0.000320435 17.275 0.000320435C17.5682 0.000320435 17.8584 0.0586467 18.1288 0.171903C18.3992 0.285158 18.6443 0.45108 18.85 0.660006C19.72 1.54001 19.72 2.96001 18.85 3.84001L10.79 12L18.85 20.16C19.72 21.04 19.72 22.46 18.85 23.34C18.41 23.78 17.85 24 17.28 24Z" fill="#C38F00"/>
</g>
</svg>
