<svg width="16" height="16" viewBox="0 0 16 16" fill="none" xmlns="http://www.w3.org/2000/svg">
<path d="M5.61008 3.05732C5.73308 2.92997 5.8802 2.8284 6.04287 2.75852C6.20555 2.68864 6.38051 2.65186 6.55755 2.65032C6.73459 2.64878 6.91016 2.68252 7.07402 2.74956C7.23788 2.8166 7.38675 2.9156 7.51194 3.04079C7.63713 3.16598 7.73614 3.31485 7.80318 3.47871C7.87022 3.64258 7.90395 3.81815 7.90242 3.99519C7.90088 4.17223 7.8641 4.34719 7.79422 4.50986C7.72434 4.67253 7.62276 4.81966 7.49541 4.94265L5.77141 6.66665H14.0001C14.3537 6.66665 14.6928 6.80713 14.9429 7.05718C15.1929 7.30723 15.3334 7.64636 15.3334 7.99999C15.3334 8.35361 15.1929 8.69275 14.9429 8.94279C14.6928 9.19284 14.3537 9.33332 14.0001 9.33332H5.77141L7.49541 11.0573C7.62276 11.1803 7.72434 11.3274 7.79422 11.4901C7.8641 11.6528 7.90088 11.8277 7.90242 12.0048C7.90395 12.1818 7.87022 12.3574 7.80318 12.5213C7.73614 12.6851 7.63713 12.834 7.51194 12.9592C7.38675 13.0844 7.23788 13.1834 7.07402 13.2504C6.91016 13.3175 6.73459 13.3512 6.55755 13.3497C6.38051 13.3481 6.20555 13.3113 6.04287 13.2415C5.8802 13.1716 5.73308 13.07 5.61008 12.9427L0.666748 7.99999L5.61008 3.05732Z" fill="#C38F00"/>
</svg>
