<svg width="12" height="12" viewBox="0 0 12 12" fill="none" xmlns="http://www.w3.org/2000/svg">
<g id="arrow-left-curved">
<path id="Vector" d="M12 10C12 10.2666 11.8941 10.5222 11.7056 10.7107C11.5172 10.8991 11.2615 11.005 10.995 11.005C10.7285 11.005 10.4728 10.8991 10.2844 10.7107C10.0959 10.5222 9.99 10.2666 9.99 10C9.98735 9.0032 9.58952 8.04813 8.88373 7.34421C8.17794 6.6403 7.22181 6.24501 6.225 6.24501H3.825L5.395 7.81001C5.48791 7.90325 5.56155 8.01387 5.6117 8.13557C5.66186 8.25727 5.68756 8.38765 5.68732 8.51928C5.68709 8.6509 5.66094 8.7812 5.61035 8.90271C5.55976 9.02423 5.48574 9.1346 5.3925 9.22751C5.29926 9.32042 5.18864 9.39406 5.06694 9.44421C4.94524 9.49437 4.81486 9.52006 4.68323 9.51983C4.55161 9.5196 4.42131 9.49344 4.29979 9.44286C4.17828 9.39227 4.06791 9.31825 3.975 9.22501L0 5.26001L3.97 1.29501C4.15764 1.1067 4.4124 1.00065 4.67823 1.00018C4.94407 0.999716 5.1992 1.10487 5.3875 1.29251C5.5758 1.48015 5.68186 1.73491 5.68232 2.00074C5.68279 2.26657 5.57764 2.5217 5.39 2.71001L3.86 4.23501H6.225C9.41 4.23501 12 6.82001 12 10Z" fill="#C38F00"/>
</g>
</svg>
