<svg width="8" height="8" viewBox="0 0 8 8" fill="none" xmlns="http://www.w3.org/2000/svg">
<path d="M5.76 7.9999C5.57 7.9999 5.38 7.92656 5.23333 7.7799L1.5 3.9999L5.23333 0.219895C5.30188 0.150253 5.38361 0.094946 5.47374 0.057194C5.56387 0.0194421 5.66061 0 5.75833 0C5.85605 0 5.9528 0.0194421 6.04293 0.057194C6.13306 0.094946 6.21478 0.150253 6.28333 0.219895C6.57333 0.513229 6.57333 0.986562 6.28333 1.2799L3.59667 3.9999L6.28333 6.7199C6.57333 7.01323 6.57333 7.48656 6.28333 7.7799C6.13667 7.92656 5.95 7.9999 5.76 7.9999Z" fill="#587052"/>
</svg>
