<svg width="36" height="36" viewBox="0 0 36 36" fill="none" xmlns="http://www.w3.org/2000/svg">
<path d="M9.54 7.485L12.84 3H23.16L26.46 7.485H31.095C33.795 7.485 36 9.72 36 12.48V28.005C36 30.765 33.795 33 31.095 33H4.905C2.205 33 0 30.765 0 28.005V12.48C0 9.72 2.205 7.485 4.905 7.485H9.54ZM18 10.83C16.8693 10.83 15.7497 11.0527 14.7051 11.4854C13.6605 11.9181 12.7113 12.5523 11.9118 13.3518C11.1123 14.1513 10.4781 15.1005 10.0454 16.1451C9.6127 17.1897 9.39 18.3093 9.39 19.44C9.39 20.5707 9.6127 21.6903 10.0454 22.7349C10.4781 23.7795 11.1123 24.7287 11.9118 25.5282C12.7113 26.3277 13.6605 26.9619 14.7051 27.3946C15.7497 27.8273 16.8693 28.05 18 28.05C20.2835 28.05 22.4735 27.1429 24.0882 25.5282C25.7029 23.9135 26.61 21.7235 26.61 19.44C26.61 17.1565 25.7029 14.9665 24.0882 13.3518C22.4735 11.7371 20.2835 10.83 18 10.83ZM18 14.925C20.49 14.925 22.515 16.95 22.515 19.44C22.515 21.93 20.49 23.955 18 23.955C15.51 23.955 13.485 21.93 13.485 19.44C13.485 16.95 15.51 14.925 18 14.925Z" fill="#C19008"/>
</svg>
