<svg width="19" height="20" viewBox="0 0 19 20" fill="none" xmlns="http://www.w3.org/2000/svg">
<g id="check-circle" clip-path="url(#clip0_1945_445)">
<path id="Vector" d="M9.5 0C6.98044 0 4.56408 1.05357 2.78249 2.92893C1.00089 4.8043 0 7.34784 0 10C0 12.6522 1.00089 15.1957 2.78249 17.0711C4.56408 18.9464 6.98044 20 9.5 20C12.0196 20 14.4359 18.9464 16.2175 17.0711C17.9991 15.1957 19 12.6522 19 10C19 7.34784 17.9991 4.8043 16.2175 2.92893C14.4359 1.05357 12.0196 0 9.5 0ZM5.04292 9.675C5.22824 9.48162 5.47863 9.37313 5.73958 9.37313C6.00053 9.37313 6.25092 9.48162 6.43625 9.675L8.3125 11.6417L12.5638 7.18333C12.7535 7.0179 12.9951 6.93296 13.2413 6.94512C13.4874 6.95727 13.7204 7.06566 13.8946 7.24907C14.0689 7.43248 14.1718 7.67772 14.1834 7.93681C14.1949 8.19591 14.1142 8.45022 13.9571 8.65L8.3125 14.5833L5.04292 11.1417C4.85921 10.9466 4.75614 10.683 4.75614 10.4083C4.75614 10.1336 4.85921 9.87008 5.04292 9.675Z" fill="#E60023"/>
</g>
<defs>
<clipPath id="clip0_1945_445">
<rect width="19" height="20" fill="white"/>
</clipPath>
</defs>
</svg>
