<svg width="8" height="8" viewBox="0 0 8 8" fill="none" xmlns="http://www.w3.org/2000/svg">
<g clip-path="url(#clip0_902_1029)">
<path d="M5.06001 3.99998L7.44668 1.61331C7.74001 1.31998 7.74001 0.846646 7.44668 0.553313C7.15334 0.25998 6.68001 0.25998 6.38668 0.553313L4.00001 2.93998L1.61334 0.553313C1.32001 0.25998 0.846677 0.25998 0.553343 0.553313C0.26001 0.846646 0.26001 1.31998 0.553343 1.61331L2.94001 3.99998L0.553343 6.38665C0.26001 6.67998 0.26001 7.15331 0.553343 7.44665C0.70001 7.59331 0.89001 7.66665 1.08334 7.66665C1.27668 7.66665 1.46668 7.59331 1.61334 7.44665L4.00001 5.05998L6.38668 7.44665C6.53334 7.59331 6.72334 7.66665 6.91668 7.66665C7.11001 7.66665 7.30001 7.59331 7.44668 7.44665C7.74001 7.15331 7.74001 6.67998 7.44668 6.38665L5.06001 3.99998Z" fill="#C19008"/>
</g>
<defs>
<clipPath id="clip0_902_1029">
<rect width="8" height="8" fill="white"/>
</clipPath>
</defs>
</svg>
