<svg width="24" height="24" viewBox="0 0 24 24" fill="none" xmlns="http://www.w3.org/2000/svg">
<g clip-path="url(#clip0_1785_1652)">
<path d="M12 0C5.85 0 0.75 4.94 0.75 11.08C0.75 13.78 1.65 16.32 3.45 18.27L2.1 23.51C1.95 23.81 2.4 24.11 2.7 23.96L7.95 21.41C9.3 21.86 10.65 22.16 12 22.16C18.15 22.16 23.25 17.22 23.25 11.08C23.25 4.94 18.15 0 12 0Z" fill="#C38F00"/>
<circle cx="9" cy="9" r="9" transform="matrix(1 0 0 -1 3 20)" fill="#F9F9F9"/>
<path d="M5.48041 20.0139L6.7688 15.8266L9.5603 17.9202L5.48041 20.0139Z" fill="#F9F9F9" stroke="#F9F9F9"/>
</g>
<defs>
<clipPath id="clip0_1785_1652">
<rect width="24" height="24" fill="white"/>
</clipPath>
</defs>
</svg>
