<svg width="24" height="24" viewBox="0 0 24 24" fill="none" xmlns="http://www.w3.org/2000/svg">
<g id="edit">
<path id="Vector" d="M13.386 6.01799L17.982 10.614L7.097 21.499L1 22.999L2.501 16.903L13.386 6.01799ZM22.048 1.95199C22.35 2.25364 22.5896 2.61186 22.753 3.00617C22.9165 3.40048 23.0006 3.82314 23.0006 4.24999C23.0006 4.67683 22.9165 5.09949 22.753 5.4938C22.5896 5.88811 22.35 6.24633 22.048 6.54799L19.75 8.84799L15.154 4.24999L17.452 1.95099C17.7537 1.64899 18.1119 1.40941 18.5062 1.24595C18.9005 1.08249 19.3232 0.998352 19.75 0.998352C20.1768 0.998352 20.5995 1.08249 20.9938 1.24595C21.3881 1.40941 21.7463 1.64899 22.048 1.95099V1.95199Z" fill="#C19008"/>
</g>
</svg>
