<svg width="12" height="12" viewBox="0 0 12 12" fill="none" xmlns="http://www.w3.org/2000/svg">
<g id="heart">
<path id="Vector" d="M11.0891 6.7915L6.5236 11.2875C6.38341 11.4238 6.19561 11.5 6.0001 11.5C5.80458 11.5 5.61678 11.4238 5.4766 11.2875L0.911096 6.7915C0.622392 6.50386 0.393316 6.16205 0.237011 5.78568C0.0807047 5.40931 0.000244141 5.00578 0.000244141 4.59825C0.000244141 4.19071 0.0807047 3.78718 0.237011 3.41081C0.393316 3.03444 0.622392 2.69264 0.911096 2.405C2.1306 1.1985 4.1086 1.1985 5.3281 2.405L6.0001 3.077L6.6721 2.405C7.8916 1.1985 9.8696 1.1985 11.0891 2.405C11.3778 2.69264 11.6069 3.03444 11.7632 3.41081C11.9195 3.78718 11.9999 4.19071 11.9999 4.59825C11.9999 5.00578 11.9195 5.40931 11.7632 5.78568C11.6069 6.16205 11.3778 6.50386 11.0891 6.7915Z" fill="#C38F00"/>
</g>
</svg>
