<svg width="12" height="12" viewBox="0 0 12 12" fill="none" xmlns="http://www.w3.org/2000/svg">
<g id="heart-outline">
<path id="Vector" d="M2.97006 3.25001C3.43006 3.25001 3.88506 3.43501 4.21506 3.76001L4.95506 4.48001L6.00006 5.50001L7.04506 4.48001L7.78506 3.76001C8.11854 3.43547 8.56474 3.25269 9.03006 3.25001C9.27506 3.25001 9.63006 3.30501 9.95506 3.56501C10.114 3.68798 10.2446 3.84373 10.3379 4.02167C10.4313 4.1996 10.4853 4.39556 10.4962 4.59621C10.5071 4.79686 10.4747 4.99751 10.4012 5.18452C10.3276 5.37153 10.2147 5.54052 10.0701 5.68001L10.0351 5.71501L10.0001 5.75501C9.97006 5.79001 7.20506 8.86501 6.00006 10.13C4.79506 8.86001 2.03006 5.78501 2.00006 5.75501L1.97006 5.71501L1.93006 5.68001C1.78664 5.54127 1.67419 5.37377 1.60008 5.1885C1.52597 5.00323 1.49188 4.80438 1.50006 4.60501C1.52558 4.2341 1.69212 3.88703 1.96549 3.63505C2.23885 3.38307 2.59831 3.2453 2.97006 3.25001ZM9.03006 1.75001C8.17437 1.75299 7.3533 2.08823 6.74006 2.68501L6.00006 3.40501L5.26006 2.68501C4.64682 2.08823 3.82575 1.75299 2.97006 1.75001C2.30506 1.75001 1.64506 1.96001 1.10506 2.39501C0.780562 2.65117 0.514586 2.97376 0.324967 3.34113C0.135349 3.70851 0.0264725 4.11218 0.00563812 4.52508C-0.0151962 4.93798 0.0524934 5.35056 0.204168 5.73516C0.355843 6.11976 0.587996 6.46748 0.88506 6.75501C0.88506 6.75501 4.03006 10.26 5.12506 11.385C5.36006 11.63 5.68006 11.75 6.00006 11.75C6.32006 11.75 6.64006 11.63 6.87506 11.385C7.97006 10.26 11.1151 6.75501 11.1151 6.75501C11.4121 6.46748 11.6443 6.11976 11.796 5.73516C11.9476 5.35056 12.0153 4.93798 11.9945 4.52508C11.9736 4.11218 11.8648 3.70851 11.6752 3.34113C11.4855 2.97376 11.2196 2.65117 10.8951 2.39501C10.3657 1.97265 9.70727 1.74494 9.03006 1.75001Z" fill="#C38F00"/>
</g>
</svg>
