<svg width="16" height="16" viewBox="0 0 16 16" fill="none" xmlns="http://www.w3.org/2000/svg">
<g clip-path="url(#clip0_1_2864)">
<path d="M3.99978 9.91668H4.00008C5.05682 9.91668 5.91675 9.05675 5.91675 8.00001C5.91675 6.94327 5.05682 6.08334 4.00008 6.08334C2.94334 6.08334 2.08341 6.94327 2.08341 8.00001L2.08341 8.00031C2.08402 8.50837 2.28612 8.99546 2.64538 9.35471C3.00463 9.71397 3.49172 9.91607 3.99978 9.91668ZM7.58695 6.90626L7.64095 7.08334H7.82608H15.7501V8.91668H14.6667H14.4167V9.16668V11.0833H12.2501V9.16668V8.91668H12.0001H7.82608H7.64095L7.58695 9.09376C7.32481 9.95344 6.76264 10.6904 6.00281 11.1704C5.24297 11.6504 4.33601 11.8415 3.44708 11.709C2.55815 11.5765 1.74638 11.1291 1.15958 10.4484C0.572787 9.76763 0.25 8.89876 0.25 8.00001C0.25 7.10126 0.572787 6.23239 1.15958 5.55164C1.74638 4.87088 2.55815 4.42351 3.44708 4.291C4.33601 4.15848 5.24297 4.34963 6.00281 4.82964C6.76264 5.30965 7.32481 6.04658 7.58695 6.90626Z" fill="#191919" stroke="white" stroke-width="0.5"/>
</g>
<defs>
<clipPath id="clip0_1_2864">
<rect width="16" height="16" fill="white"/>
</clipPath>
</defs>
</svg>
