<svg width="24" height="24" viewBox="0 0 24 24" fill="none" xmlns="http://www.w3.org/2000/svg">
<g id="person">
<path id="Vector" d="M12 12C17.523 12 22 16.477 22 22V24H2V22C2 16.477 6.477 12 12 12ZM12 11C10.5413 11 9.14236 10.4205 8.11091 9.38909C7.07946 8.35764 6.5 6.95869 6.5 5.5C6.5 4.04131 7.07946 2.64236 8.11091 1.61091C9.14236 0.579463 10.5413 0 12 0C13.4587 0 14.8576 0.579463 15.8891 1.61091C16.9205 2.64236 17.5 4.04131 17.5 5.5C17.5 6.95869 16.9205 8.35764 15.8891 9.38909C14.8576 10.4205 13.4587 11 12 11Z" fill="#C19008"/>
</g>
</svg>
