<svg width="24" height="24" viewBox="0 0 24 24" fill="none" xmlns="http://www.w3.org/2000/svg">
<path d="M3 4C3 3.20435 3.31607 2.44129 3.87868 1.87868C4.44129 1.31607 5.20435 1 6 1H18C18.7956 1 19.5587 1.31607 20.1213 1.87868C20.6839 2.44129 21 3.20435 21 4V21.43C21.0003 21.7852 20.906 22.134 20.7268 22.4406C20.5477 22.7473 20.2901 23.0007 19.9805 23.1748C19.671 23.3489 19.3206 23.4375 18.9655 23.4314C18.6104 23.4253 18.2634 23.3247 17.96 23.14L12 19.5L6.04 23.14C5.73736 23.3242 5.39121 23.4248 5.03695 23.4313C4.6827 23.4379 4.33307 23.3502 4.02383 23.1773C3.71458 23.0043 3.45683 22.7524 3.27694 22.4471C3.09705 22.1419 3.00147 21.7943 3 21.44V4Z" fill="#C19008"/>
</svg>
