<svg width="24" height="24" viewBox="0 0 24 24" fill="none" xmlns="http://www.w3.org/2000/svg">
<g id="save-outline">
<path id="Vector" d="M6 19.65V4H18V19.65L12 15.98L6 19.65ZM12 19.5L17.96 23.14C18.2626 23.3242 18.6088 23.4248 18.963 23.4313C19.3173 23.4379 19.6669 23.3502 19.9762 23.1773C20.2854 23.0043 20.5432 22.7524 20.7231 22.4471C20.903 22.1419 20.9985 21.7943 21 21.44V4C21 3.20435 20.6839 2.44129 20.1213 1.87868C19.5587 1.31607 18.7957 1 18 1H6C5.20435 1 4.44129 1.31607 3.87868 1.87868C3.31607 2.44129 3 3.20435 3 4V21.43C2.9997 21.7852 3.09399 22.134 3.27316 22.4406C3.45233 22.7473 3.70993 23.0007 4.01948 23.1748C4.32902 23.3489 4.67935 23.4375 5.03446 23.4314C5.38957 23.4253 5.73664 23.3247 6.04 23.14L12 19.5Z" fill="#C38F00"/>
</g>
</svg>
