<svg width="24" height="20" viewBox="0 0 24 20" fill="none" xmlns="http://www.w3.org/2000/svg">
<path d="M23.5382 19.5725L23.5692 19.5395C23.7843 19.3231 23.927 19.0453 23.9775 18.7444C24.028 18.4435 23.9839 18.1343 23.8512 17.8595L20.9992 11.4995L7.99924 9.99951L20.9992 8.49951L23.8522 2.13951C23.9842 1.86594 24.0283 1.5583 23.9788 1.25866C23.9292 0.959019 23.7882 0.682009 23.5752 0.465514L23.5342 0.423514C23.1312 0.0355134 22.5212 -0.136486 21.9082 0.123515L0.91824 8.61651C0.733241 8.69451 0.57524 8.80051 0.44624 8.92651L0.41224 8.95951C-0.273761 9.66951 -0.10476 10.9535 0.91924 11.3825L21.9092 19.8765C22.097 19.957 22.299 19.9988 22.5032 19.9995C22.9012 19.9995 23.2672 19.8355 23.5382 19.5725Z" fill="#C38F00"/>
</svg>
