<svg width="24" height="24" viewBox="0 0 24 24" fill="none" xmlns="http://www.w3.org/2000/svg">
<g id="terms">
<path id="Vector" d="M3 6L13 6C13.5304 6 14.0391 5.78929 14.4142 5.41421C14.7893 5.03914 15 4.53043 15 4C15 3.46957 14.7893 2.96086 14.4142 2.58579C14.0391 2.21071 13.5304 2 13 2L3 2C2.46957 2 1.96086 2.21071 1.58579 2.58579C1.21071 2.96086 1 3.46957 1 4C1 4.53043 1.21071 5.03914 1.58579 5.41421C1.96086 5.78929 2.46957 6 3 6ZM20 7C20.7956 7 21.5587 6.68393 22.1213 6.12132C22.6839 5.55871 23 4.79565 23 4C23 3.20435 22.6839 2.44129 22.1213 1.87868C21.5587 1.31607 20.7956 1 20 1C19.2044 1 18.4413 1.31607 17.8787 1.87868C17.3161 2.44129 17 3.20435 17 4C17 4.79565 17.3161 5.55871 17.8787 6.12132C18.4413 6.68393 19.2044 7 20 7ZM3 14H13C13.5304 14 14.0391 13.7893 14.4142 13.4142C14.7893 13.0391 15 12.5304 15 12C15 11.4696 14.7893 10.9609 14.4142 10.5858C14.0391 10.2107 13.5304 10 13 10H3C2.46957 10 1.96086 10.2107 1.58579 10.5858C1.21071 10.9609 1 11.4696 1 12C1 12.5304 1.21071 13.0391 1.58579 13.4142C1.96086 13.7893 2.46957 14 3 14ZM20 15C20.7956 15 21.5587 14.6839 22.1213 14.1213C22.6839 13.5587 23 12.7956 23 12C23 11.2044 22.6839 10.4413 22.1213 9.87868C21.5587 9.31607 20.7956 9 20 9C19.2044 9 18.4413 9.31607 17.8787 9.87868C17.3161 10.4413 17 11.2044 17 12C17 12.7956 17.3161 13.5587 17.8787 14.1213C18.4413 14.6839 19.2044 15 20 15ZM13 18L3 18C2.46957 18 1.96086 18.2107 1.58579 18.5858C1.21071 18.9609 1 19.4696 1 20C1 20.5304 1.21071 21.0391 1.58579 21.4142C1.96086 21.7893 2.46957 22 3 22L13 22C13.5304 22 14.0391 21.7893 14.4142 21.4142C14.7893 21.0391 15 20.5304 15 20C15 19.4696 14.7893 18.9609 14.4142 18.5858C14.0391 18.2107 13.5304 18 13 18ZM17 20C17 19.606 17.0776 19.2159 17.2284 18.8519C17.3791 18.488 17.6001 18.1573 17.8787 17.8787C18.1573 17.6001 18.488 17.3791 18.8519 17.2284C19.2159 17.0776 19.606 17 20 17C20.394 17 20.7841 17.0776 21.1481 17.2284C21.512 17.3791 21.8427 17.6001 22.1213 17.8787C22.3999 18.1573 22.6209 18.488 22.7716 18.8519C22.9224 19.2159 23 19.606 23 20C23 20.7956 22.6839 21.5587 22.1213 22.1213C21.5587 22.6839 20.7956 23 20 23C19.2044 23 18.4413 22.6839 17.8787 22.1213C17.3161 21.5587 17 20.7956 17 20Z" fill="#C19008"/>
</g>
</svg>
