<svg width="12" height="12" viewBox="0 0 12 12" fill="none" xmlns="http://www.w3.org/2000/svg">
<g clip-path="url(#clip0_2519_304)">
<path d="M6.693 3.00909L8.991 5.30709L3.5485 10.7496L0.5 11.4996L1.2505 8.45159L6.693 3.00909ZM11.024 0.976085C11.175 1.12691 11.2948 1.30602 11.3765 1.50318C11.4582 1.70033 11.5003 1.91166 11.5003 2.12509C11.5003 2.33851 11.4582 2.54984 11.3765 2.74699C11.2948 2.94415 11.175 3.12326 11.024 3.27409L9.875 4.42408L7.577 2.12509L8.726 0.975585C8.87683 0.824585 9.05594 0.704796 9.25309 0.623066C9.45025 0.541335 9.66158 0.499268 9.875 0.499268C10.0884 0.499268 10.2998 0.541335 10.4969 0.623066C10.6941 0.704796 10.8732 0.824585 11.024 0.975585V0.976085Z" fill="white"/>
</g>
<defs>
<clipPath id="clip0_2519_304">
<rect width="12" height="12" fill="white"/>
</clipPath>
</defs>
</svg>
